<svg xmlns="http://www.w3.org/2000/svg" xmlns:xlink="http://www.w3.org/1999/xlink" width="139.089" height="50.632" viewBox="0 0 139.089 50.632">
  <defs>
    <clipPath id="clip-path">
      <rect id="Retângulo_4631" data-name="Retângulo 4631" width="139.089" height="50.632" fill="#B34353"/>
    </clipPath>
  </defs>
  <g id="img-logo-anuario" transform="translate(-1.2 -10.3)">
    <g id="Grupo_7780" data-name="Grupo 7780" transform="translate(1.2 10.3)" clip-path="url(#clip-path)">
      <path id="Caminho_1612" data-name="Caminho 1612" d="M154.424,22.419a3.918,3.918,0,0,0,1.148-3.076,3.918,3.918,0,0,0-1.148-3.076,5.846,5.846,0,0,0-6.7,0,3.918,3.918,0,0,0-1.148,3.076,3.918,3.918,0,0,0,1.148,3.076,5.846,5.846,0,0,0,6.7,0m-3.626-.092V16.313q0-.413.275-.413t.275.413v6.013q0,.413-.275.413t-.275-.413m-9.686-6.518a2.588,2.588,0,0,0-1.79-.643,2.7,2.7,0,0,0-2.2,1.056,5.177,5.177,0,0,0-.78,3.03,5.336,5.336,0,0,0,.78,3.076,2.481,2.481,0,0,0,2.157,1.1,2.21,2.21,0,0,0,2.112-1.285,2.32,2.32,0,0,0,2.249,1.285,2.389,2.389,0,0,0,1.836-.689,2.789,2.789,0,0,0,.643-1.928.789.789,0,0,0-.046-.367c-.046-.092-.092-.092-.138-.092h-.275a.169.169,0,0,0-.138.046,1.629,1.629,0,0,0-.046.321,3.427,3.427,0,0,1-.092.5c-.046.092-.092.138-.184.138s-.138-.046-.138-.092c-.046-.046-.046-.184-.046-.367V12.549c0-.184-.046-.321-.138-.367a.561.561,0,0,0-.413-.138h-4.04c-.138,0-.184.046-.184.138v.184c0,.046,0,.092.046.092,0,.046.046.046.138.092a2.351,2.351,0,0,1,.6.551,1.918,1.918,0,0,1,.138.826v1.882Zm-.6,1.1c0-.23.092-.367.275-.367a.4.4,0,0,1,.275.138V21.5a.278.278,0,0,1-.275.138c-.184,0-.275-.138-.275-.367Zm-9.64,5.508a3.918,3.918,0,0,0,1.148-3.076,3.918,3.918,0,0,0-1.148-3.076,5.846,5.846,0,0,0-6.7,0,3.918,3.918,0,0,0-1.148,3.076,3.918,3.918,0,0,0,1.148,3.076,5.846,5.846,0,0,0,6.7,0m-3.626-.092V16.313q0-.413.275-.413t.275.413v6.013q0,.413-.275.413t-.275-.413m-10.466-6.977c-.138,0-.184.046-.184.138v.23c0,.046,0,.092.046.092,0,.046.046.046.138.092a2.35,2.35,0,0,1,.6.551,1.918,1.918,0,0,1,.138.826v3.581a2.789,2.789,0,0,0,.643,1.928,2.389,2.389,0,0,0,1.836.689,2.391,2.391,0,0,0,2.617-2.617c0-.184,0-.321-.046-.367-.046-.092-.092-.092-.138-.092h-.275a.169.169,0,0,0-.138.046,1.628,1.628,0,0,0-.046.321,1.777,1.777,0,0,1-.138.5c-.046.092-.092.092-.184.092s-.138-.046-.138-.092c-.046-.046-.046-.184-.046-.367V15.854c0-.184-.046-.321-.138-.367a.561.561,0,0,0-.413-.138Zm1.056-1.056a2.818,2.818,0,0,0,2.938,0,1.377,1.377,0,0,0,0-2.2,2.818,2.818,0,0,0-2.938,0,1.377,1.377,0,0,0,0,2.2m-9,1.056c-.138,0-.184.046-.184.138v.23c0,.046,0,.092.046.092,0,.046.046.046.138.092a2.352,2.352,0,0,1,.6.551,1.918,1.918,0,0,1,.138.826v5.508a.459.459,0,0,0,.5.5h3.167c.367,0,.551-.184.551-.5V20.032a.917.917,0,0,0-.092-.413c-.046-.092-.138-.138-.275-.23a2.508,2.508,0,0,1-1.01-.734,1.868,1.868,0,0,1-.367-1.1,1.7,1.7,0,0,1,.5-1.239,1.5,1.5,0,0,1,1.194-.5c.23,0,.321.092.321.23a.169.169,0,0,1-.046.138,1.549,1.549,0,0,0-1.056.367,1.35,1.35,0,0,0-.413,1.01,1.456,1.456,0,0,0,.6,1.194,2.622,2.622,0,0,0,3.03-.046,1.594,1.594,0,0,0,.6-1.331,1.979,1.979,0,0,0-.734-1.607,2.831,2.831,0,0,0-1.882-.643,3.572,3.572,0,0,0-1.285.23,3.174,3.174,0,0,0-1.01.734,1.907,1.907,0,0,0-1.836-.78h-1.194ZM103.608,10.8A1.493,1.493,0,0,0,103.149,12a1.415,1.415,0,0,0,.046.459c0,.138.046.23.046.367s.046.23.046.367a1.148,1.148,0,0,1-.138.6.506.506,0,0,1-.459.23,1.046,1.046,0,0,1-.5-.138l-.046-.046a.169.169,0,0,0-.138-.046c-.046,0-.092,0-.092.046l-.092.138a.169.169,0,0,0-.046.138c0,.046.046.138.184.184a2.388,2.388,0,0,0,1.331.321,3.6,3.6,0,0,0,1.607-.367,3.1,3.1,0,0,0,1.148-1.01,2.392,2.392,0,0,0,.413-1.331,1.422,1.422,0,0,0-1.515-1.515,1.609,1.609,0,0,0-1.331.413m4.453,11.981a2.789,2.789,0,0,0,.643-1.928.789.789,0,0,0-.046-.367c-.046-.092-.092-.092-.138-.092h-.275a.169.169,0,0,0-.138.046,1.628,1.628,0,0,0-.046.321,3.43,3.43,0,0,1-.092.5c-.046.092-.092.138-.184.138s-.138-.046-.138-.092c-.046-.046-.046-.184-.046-.367V19.022a3.74,3.74,0,0,0-1.056-2.846,4.288,4.288,0,0,0-3.03-.964,4.962,4.962,0,0,0-2.662.643,1.844,1.844,0,0,0-1.01,1.653,1.572,1.572,0,0,0,.551,1.239,2.729,2.729,0,0,0,3.03,0,1.4,1.4,0,0,0,.6-1.194,1.35,1.35,0,0,0-.413-1.01,1.42,1.42,0,0,0-1.056-.367.169.169,0,0,1-.046-.138c0-.138.092-.23.321-.23a1.667,1.667,0,0,1,1.194.5,1.859,1.859,0,0,1,.5,1.239c0,1.194-.964,1.928-2.846,2.157a3.467,3.467,0,0,0-1.653.6,1.42,1.42,0,0,0-.551,1.194,1.813,1.813,0,0,0,.643,1.423,2.647,2.647,0,0,0,1.744.551,2.329,2.329,0,0,0,1.285-.321,2.541,2.541,0,0,0,.872-.964,2.32,2.32,0,0,0,2.249,1.285,2.351,2.351,0,0,0,1.79-.689M103.7,21.455a.252.252,0,0,1-.23.138c-.184,0-.275-.092-.275-.321v-.964c0-.23.092-.321.275-.321a.252.252,0,0,1,.23.138ZM88.919,15.349c-.138,0-.184.046-.184.138v.23c0,.046,0,.092.046.092,0,.046.046.046.138.092a2.351,2.351,0,0,1,.6.551,1.918,1.918,0,0,1,.138.826V20.9a2.578,2.578,0,0,0,.6,1.882,2.148,2.148,0,0,0,1.7.689,3.076,3.076,0,0,0,1.423-.321,2.434,2.434,0,0,0,.964-.964,2.324,2.324,0,0,0,.918.964,2.6,2.6,0,0,0,1.331.321,2.389,2.389,0,0,0,1.836-.689,2.606,2.606,0,0,0,.689-1.928.789.789,0,0,0-.046-.367c-.046-.092-.092-.092-.138-.092h-.275a.169.169,0,0,0-.138.046,1.629,1.629,0,0,0-.046.321,3.431,3.431,0,0,1-.092.5c-.046.092-.092.138-.184.138s-.138-.046-.138-.092c-.046-.046-.046-.184-.046-.367V15.9c0-.184-.046-.321-.138-.367a.561.561,0,0,0-.413-.138h-2.8a.561.561,0,0,0-.413.138.452.452,0,0,0-.138.367v5.646a.278.278,0,0,1-.275.138.351.351,0,0,1-.23-.092.652.652,0,0,1-.092-.275V15.854c0-.184-.046-.321-.138-.367a.561.561,0,0,0-.413-.138Zm-9.686,0c-.138,0-.184.046-.184.138v.23c0,.046,0,.092.046.092,0,.046.046.046.138.092a2.351,2.351,0,0,1,.6.551,1.918,1.918,0,0,1,.138.826v5.508c0,.184.046.321.138.367a.561.561,0,0,0,.413.138h2.8a.561.561,0,0,0,.413-.138.452.452,0,0,0,.138-.367V17.14A.278.278,0,0,1,84.145,17a.351.351,0,0,1,.23.092.652.652,0,0,1,.092.275V22.74c0,.184.046.321.138.367a.561.561,0,0,0,.413.138h2.8a.561.561,0,0,0,.413-.138.452.452,0,0,0,.138-.367V17.69a2.578,2.578,0,0,0-.6-1.882,2.148,2.148,0,0,0-1.7-.689,2.772,2.772,0,0,0-1.377.321,2.434,2.434,0,0,0-.964.964,1.194,1.194,0,0,0-.643-.826A2.478,2.478,0,0,0,81.85,15.3H79.233Zm-7.3.872c0-.092-.046-.138-.046-.184V15.9a.238.238,0,0,1,.092-.184.23.23,0,0,1,.367,0l1.1,4.177h-.6Zm2.2,6.335c.092.275.138.459.275.551a.685.685,0,0,0,.459.138h3.9a.459.459,0,0,0,.5-.5,3.72,3.72,0,0,0-.275-1.1l-2.984-7.85a1.043,1.043,0,0,0-.5-.643,1.572,1.572,0,0,0-.826-.184H71.062c-.138,0-.184.046-.184.138v.184c0,.092.046.138.138.184a1.619,1.619,0,0,1,.5.413.775.775,0,0,1,.138.459,1.419,1.419,0,0,1-.092.367c-1.148,2.662-1.974,4.59-2.433,5.83a11.086,11.086,0,0,0-.734,2.2.447.447,0,0,0,.184.413.685.685,0,0,0,.459.138h4.085c.321,0,.5-.138.5-.367a4.092,4.092,0,0,0-.092-.5l-.459-1.744h.6Z" transform="translate(-37.552 -10.346)" fill="#B34353"/>
    </g>
    <g id="Grupo_7781" data-name="Grupo 7781" transform="translate(1.2 10.3)" clip-path="url(#clip-path)">
      <path id="Caminho_1613" data-name="Caminho 1613" d="M124.957,17.031a4.875,4.875,0,0,0-1.423,3.535,9.9,9.9,0,0,0,.092,1.285c.046.367.138.734.184,1.1A8.944,8.944,0,0,1,123.9,24.1a2.813,2.813,0,0,1-.459,1.744,1.546,1.546,0,0,1-1.285.643,3.139,3.139,0,0,1-1.515-.413l-.184-.092a1.057,1.057,0,0,0-.413-.138.347.347,0,0,0-.321.184l-.275.459a.61.61,0,0,0-.138.367c0,.184.184.367.5.551a7.453,7.453,0,0,0,3.9.964,10.15,10.15,0,0,0,4.866-1.148,9.251,9.251,0,0,0,3.443-3.03,6.924,6.924,0,0,0,1.239-3.948,4.323,4.323,0,0,0-1.285-3.305A4.65,4.65,0,0,0,128.63,15.7a5.074,5.074,0,0,0-3.672,1.331m13.358,35.943a8.076,8.076,0,0,0,1.928-5.784,2.744,2.744,0,0,0-.138-1.056.426.426,0,0,0-.413-.321h-.78c-.184,0-.321.046-.367.184a3.314,3.314,0,0,0-.184.964,5.049,5.049,0,0,1-.321,1.469.662.662,0,0,1-.6.367.461.461,0,0,1-.459-.275,2.744,2.744,0,0,1-.138-1.056V41.544c0-3.718-1.056-6.564-3.121-8.492s-5.1-2.892-9.089-2.892a15.184,15.184,0,0,0-8.033,1.882,5.686,5.686,0,0,0-3.03,5,4.643,4.643,0,0,0,1.7,3.764,6.659,6.659,0,0,0,4.545,1.423,7.035,7.035,0,0,0,4.59-1.423,4.289,4.289,0,0,0,1.79-3.535,3.948,3.948,0,0,0-1.239-2.984,4.525,4.525,0,0,0-3.213-1.148.886.886,0,0,1-.138-.459c0-.413.321-.643.964-.643a4.605,4.605,0,0,1,3.535,1.561,5.205,5.205,0,0,1,1.515,3.718c0,3.581-2.846,5.738-8.584,6.472a10.03,10.03,0,0,0-4.958,1.79,4.5,4.5,0,0,0-1.607,3.626,5.117,5.117,0,0,0,1.974,4.223,7.96,7.96,0,0,0,5.187,1.607,7.728,7.728,0,0,0,3.856-.918,7.166,7.166,0,0,0,2.617-2.938,6.99,6.99,0,0,0,6.748,3.856,7.48,7.48,0,0,0,5.463-2.066m-13.037-3.948a.958.958,0,0,1-.734.367c-.551,0-.78-.321-.78-.918V45.492c0-.643.275-.918.78-.918a.892.892,0,0,1,.734.367ZM88.831,30.711c-.367,0-.551.138-.551.459v.551a.664.664,0,0,0,.092.321,1.136,1.136,0,0,0,.413.321,5,5,0,0,1,1.744,1.607,5.307,5.307,0,0,1,.459,2.479v16.48a1.325,1.325,0,0,0,1.469,1.515h9.5c1.056,0,1.607-.5,1.607-1.515V44.711a2.472,2.472,0,0,0-.23-1.194,1.72,1.72,0,0,0-.872-.643,7.718,7.718,0,0,1-3.03-2.249,5.563,5.563,0,0,1-1.056-3.305,5.234,5.234,0,0,1,1.515-3.764A4.674,4.674,0,0,1,103.428,32c.643,0,.964.23.964.643a.886.886,0,0,1-.138.459,4.525,4.525,0,0,0-3.213,1.148A3.948,3.948,0,0,0,99.8,37.229a4.369,4.369,0,0,0,1.744,3.535,7.032,7.032,0,0,0,4.5,1.423,6.833,6.833,0,0,0,4.59-1.515,4.947,4.947,0,0,0,1.79-3.948,5.985,5.985,0,0,0-2.2-4.774,8.426,8.426,0,0,0-5.6-1.882,9.177,9.177,0,0,0-3.856.734,9.845,9.845,0,0,0-3.03,2.2c-.964-1.607-2.8-2.387-5.463-2.387H88.831ZM86.4,52.974a8.076,8.076,0,0,0,1.928-5.784,2.744,2.744,0,0,0-.138-1.056.426.426,0,0,0-.413-.321h-.78c-.184,0-.321.046-.367.184a3.313,3.313,0,0,0-.184.964,5.05,5.05,0,0,1-.321,1.469.662.662,0,0,1-.6.367.461.461,0,0,1-.459-.275,2.744,2.744,0,0,1-.138-1.056V41.544c0-3.718-1.056-6.564-3.121-8.492s-5.1-2.892-9.089-2.892a15.184,15.184,0,0,0-8.033,1.882,5.686,5.686,0,0,0-3.03,5,4.643,4.643,0,0,0,1.7,3.764A6.659,6.659,0,0,0,67.9,42.233a7.035,7.035,0,0,0,4.59-1.423,4.289,4.289,0,0,0,1.79-3.535,3.948,3.948,0,0,0-1.239-2.984,4.525,4.525,0,0,0-3.213-1.148.886.886,0,0,1-.138-.459c0-.413.321-.643.964-.643A4.605,4.605,0,0,1,74.187,33.6,5.205,5.205,0,0,1,75.7,37.321c0,3.581-2.846,5.738-8.584,6.472a10.03,10.03,0,0,0-4.958,1.79,4.505,4.505,0,0,0-1.607,3.626,5.117,5.117,0,0,0,1.974,4.223,7.96,7.96,0,0,0,5.187,1.607,7.728,7.728,0,0,0,3.856-.918,7.165,7.165,0,0,0,2.617-2.938,6.967,6.967,0,0,0,6.7,3.856A7.516,7.516,0,0,0,86.4,52.974M73.361,49.026a.958.958,0,0,1-.734.367c-.551,0-.78-.321-.78-.918V45.492c0-.643.275-.918.78-.918a.892.892,0,0,1,.734.367ZM45.452,32.685a.892.892,0,0,1,.734-.367c.551,0,.826.321.826.918v6.61c0,.643-.275.918-.826.918a.892.892,0,0,1-.734-.367ZM44.258,43.1a.737.737,0,0,1,.5-.23,7.1,7.1,0,0,0,5.463,2.249,7.916,7.916,0,0,0,5.554-1.974,6.447,6.447,0,0,0,2.2-5,6.656,6.656,0,0,0-1.469-4.223,9.358,9.358,0,0,0-3.948-2.8,15.49,15.49,0,0,0-5.646-.964,15.783,15.783,0,0,0-7.253,1.607,11.391,11.391,0,0,0-4.774,4.407,12.384,12.384,0,0,0-1.7,6.381,11.826,11.826,0,0,0,1.79,6.472,12.4,12.4,0,0,0,4.82,4.407,15.15,15.15,0,0,0,6.84,1.561,13.549,13.549,0,0,0,6.427-1.515,11.331,11.331,0,0,0,4.453-3.948,9.615,9.615,0,0,0,1.561-5.325,1.659,1.659,0,0,0-.138-.826.507.507,0,0,0-.459-.23h-.551a.865.865,0,0,0-.367.092,2.323,2.323,0,0,0-.413.367,9.651,9.651,0,0,1-7.3,2.984,9.21,9.21,0,0,1-4.085-.918c-1.194-.6-1.836-1.285-1.836-1.974a1.451,1.451,0,0,1,.321-.6M19.286,25.11a.623.623,0,0,1,.321.6.808.808,0,0,1-.275.6,6.838,6.838,0,0,0-4.682,1.515,5.08,5.08,0,0,0-1.744,3.994,6.121,6.121,0,0,0,1.1,3.581,7.3,7.3,0,0,0,2.938,2.433,9.188,9.188,0,0,0,4.085.872,8.892,8.892,0,0,0,5.922-1.882,6.152,6.152,0,0,0,2.249-5,7.67,7.67,0,0,0-1.653-4.82A10.534,10.534,0,0,0,23.1,23.733a16.163,16.163,0,0,0-6.289-1.148,15.947,15.947,0,0,0-8.217,2.066,14.165,14.165,0,0,0-5.463,5.692A17.231,17.231,0,0,0,1.2,38.56a17.527,17.527,0,0,0,2.112,8.722A14.931,14.931,0,0,0,9,53.158a15.477,15.477,0,0,0,7.9,2.066,13.79,13.79,0,0,0,7.62-2.112,14.528,14.528,0,0,0,5.141-5.646,17.055,17.055,0,0,0,1.836-7.85,10.05,10.05,0,0,0-.184-2.112,2.567,2.567,0,0,0-.321-1.01.527.527,0,0,0-.5-.275H29.8a.417.417,0,0,0-.321.138,5.118,5.118,0,0,0-.413.459,9.451,9.451,0,0,1-3.581,2.571,11.3,11.3,0,0,1-4.636.918,9.9,9.9,0,0,1-6.886-2.387A7.776,7.776,0,0,1,11.3,31.858,6.617,6.617,0,0,1,13.365,26.9a7.067,7.067,0,0,1,5.1-2.02,2.183,2.183,0,0,1,.826.23" transform="translate(-1.2 -13.221)" fill="#B34353"/>
    </g>
    <g id="Grupo_7782" data-name="Grupo 7782" transform="translate(1.2 10.3)" clip-path="url(#clip-path)">
      <path id="Caminho_1614" data-name="Caminho 1614" d="M151.143,112.671a.856.856,0,0,1-.734.321c-.092,0-.138,0-.184-.046s-.092-.046-.092-.092,0-.092.046-.092h.046a.8.8,0,0,0,.872-.872,1.106,1.106,0,0,0-.321-.826,1.348,1.348,0,0,0-.872-.321,1.484,1.484,0,0,0-1.01.321,1.15,1.15,0,0,0-.367.826,1.245,1.245,0,0,0,.6,1.1,2.937,2.937,0,0,0,1.653.413,3.839,3.839,0,0,0,1.331-.23,2.1,2.1,0,0,0,.872-.6,1.586,1.586,0,0,0,.321-.918,1.383,1.383,0,0,0-.413-1.056,1.64,1.64,0,0,0-1.194-.413,2.049,2.049,0,0,0,1.056-.459,1.175,1.175,0,0,0,.367-.872,1.32,1.32,0,0,0-.6-1.148,2.777,2.777,0,0,0-1.607-.413,3.389,3.389,0,0,0-1.653.367,1.126,1.126,0,0,0-.6,1.056.946.946,0,0,0,.321.78,1.143,1.143,0,0,0,.872.321,1.292,1.292,0,0,0,.918-.275.856.856,0,0,0,.321-.734,1,1,0,0,0-.229-.643.908.908,0,0,0-.643-.23h-.046a.142.142,0,0,1-.046-.092.1.1,0,0,1,.092-.092c.046,0,.138-.046.184-.046a.913.913,0,0,1,.734.321,1.2,1.2,0,0,1,.275.826,1.094,1.094,0,0,1-.413.918,1.792,1.792,0,0,1-1.148.321h-.23c-.092,0-.092.046-.092.092v.138a.1.1,0,0,0,.092.092h.23a1.718,1.718,0,0,1,1.148.367,1.282,1.282,0,0,1,.413,1.01,1.169,1.169,0,0,1-.275.872m-6.748-.5c0,.138-.046.184-.184.184-.046,0-.092,0-.092-.046v-.872a.738.738,0,0,1,.138-.5.373.373,0,0,1,.367-.184.582.582,0,0,1,.275.046,3.165,3.165,0,0,0,.367.138c.138.046.275.092.459.138a2.234,2.234,0,0,0,.551.046,1.851,1.851,0,0,0,1.01-.275,1.656,1.656,0,0,0,.689-.689,1.673,1.673,0,0,0,.23-.964,1.564,1.564,0,0,0-.321-1.01,1.818,1.818,0,0,0-.872-.643,3.838,3.838,0,0,0-1.331-.23,2.869,2.869,0,0,0-1.148.184,2.549,2.549,0,0,0-.78.5,1.126,1.126,0,0,0-.275.734,1.175,1.175,0,0,0,.367.872,1.293,1.293,0,0,0,.964.321,1.457,1.457,0,0,0,.918-.275.981.981,0,0,0,.367-.78.77.77,0,0,0-.275-.643.948.948,0,0,0-.734-.23h-.046a.169.169,0,0,1-.046-.138c0-.092.092-.138.23-.138a1.143,1.143,0,0,1,.872.321,1.221,1.221,0,0,1-.046,1.7,1.715,1.715,0,0,1-1.056.413,2.431,2.431,0,0,0-.734.184c-.184.092-.321.184-.367.321a1.269,1.269,0,0,0-.092.643v1.7c0,.092.046.138.092.138h.23c.046,0,.092,0,.092-.046s.046-.092.046-.138a2.084,2.084,0,0,1,.092-.367c.046-.046.046-.092.138-.092a2.366,2.366,0,0,0,.78.6,2.335,2.335,0,0,0,1.01.184,1.806,1.806,0,0,0,1.469-.689,2.778,2.778,0,0,0,.551-1.79v-.23c0-.046-.046-.046-.092-.046h-.184a.16.16,0,0,0-.046.092,1.678,1.678,0,0,1-.689.5,2.4,2.4,0,0,1-.964.184,2.425,2.425,0,0,1-.6-.046,2.133,2.133,0,0,1-.413-.138,1.529,1.529,0,0,1-.275-.138.5.5,0,0,0-.23-.046.314.314,0,0,0-.321.321v.918Zm-4.131.6v-4.728c0-.138.046-.23.138-.23s.138.092.138.23v4.728c0,.138-.046.23-.138.23s-.138-.092-.138-.23m1.974-.138a3.332,3.332,0,0,0,.689-2.2,3.547,3.547,0,0,0-.643-2.249,2.66,2.66,0,0,0-3.764,0,3.547,3.547,0,0,0-.643,2.249,3.249,3.249,0,0,0,.689,2.2,2.453,2.453,0,0,0,3.672,0m-8.676-.459c0,.138-.046.184-.184.184-.046,0-.092,0-.092-.046v-.872a.738.738,0,0,1,.138-.5.373.373,0,0,1,.367-.184.582.582,0,0,1,.275.046,3.164,3.164,0,0,0,.367.138c.138.046.275.092.459.138a2.234,2.234,0,0,0,.551.046,1.851,1.851,0,0,0,1.01-.275,1.656,1.656,0,0,0,.689-.689,1.673,1.673,0,0,0,.23-.964,1.564,1.564,0,0,0-.321-1.01,1.818,1.818,0,0,0-.872-.643,3.838,3.838,0,0,0-1.331-.23,2.869,2.869,0,0,0-1.148.184,2.548,2.548,0,0,0-.78.5,1.126,1.126,0,0,0-.275.734,1.175,1.175,0,0,0,.367.872,1.293,1.293,0,0,0,.964.321,1.457,1.457,0,0,0,.918-.275.981.981,0,0,0,.367-.78.77.77,0,0,0-.275-.643.948.948,0,0,0-.734-.23H134.2a.169.169,0,0,1-.046-.138c0-.092.092-.138.23-.138a1.143,1.143,0,0,1,.872.321,1.221,1.221,0,0,1-.046,1.7,1.715,1.715,0,0,1-1.056.413,2.431,2.431,0,0,0-.734.184c-.184.092-.321.184-.367.321a1.269,1.269,0,0,0-.092.643v1.7c0,.092.046.138.092.138h.23c.046,0,.092,0,.092-.046s.046-.092.046-.138a2.081,2.081,0,0,1,.092-.367c.046-.046.046-.092.138-.092a2.366,2.366,0,0,0,.78.6,2.335,2.335,0,0,0,1.01.184,1.806,1.806,0,0,0,1.469-.689,2.778,2.778,0,0,0,.551-1.79v-.23c0-.046-.046-.046-.092-.046h-.184a.16.16,0,0,0-.046.092,1.678,1.678,0,0,1-.689.5,2.4,2.4,0,0,1-.964.184,2.425,2.425,0,0,1-.6-.046,2.134,2.134,0,0,1-.413-.138,1.529,1.529,0,0,1-.275-.138.5.5,0,0,0-.23-.046.314.314,0,0,0-.321.321v.918Zm-1.423,1.056a.784.784,0,0,0,0-1.194,1.148,1.148,0,0,0-1.377,0,.784.784,0,0,0,0,1.194,1.148,1.148,0,0,0,1.377,0m-5.738-1.056c0,.138-.046.184-.184.184-.046,0-.092,0-.092-.046v-.872a.738.738,0,0,1,.138-.5.373.373,0,0,1,.367-.184.582.582,0,0,1,.275.046,3.163,3.163,0,0,0,.367.138c.138.046.275.092.459.138a2.235,2.235,0,0,0,.551.046,1.851,1.851,0,0,0,1.01-.275,1.655,1.655,0,0,0,.689-.689,1.673,1.673,0,0,0,.23-.964,1.564,1.564,0,0,0-.321-1.01,1.818,1.818,0,0,0-.872-.643,3.838,3.838,0,0,0-1.331-.23,2.869,2.869,0,0,0-1.148.184,2.549,2.549,0,0,0-.78.5,1.126,1.126,0,0,0-.275.734,1.175,1.175,0,0,0,.367.872,1.293,1.293,0,0,0,.964.321,1.457,1.457,0,0,0,.918-.275.981.981,0,0,0,.367-.78.77.77,0,0,0-.275-.643.948.948,0,0,0-.734-.23h-.046a.169.169,0,0,1-.046-.138c0-.092.092-.138.23-.138a1.143,1.143,0,0,1,.872.321,1.221,1.221,0,0,1-.046,1.7,1.716,1.716,0,0,1-1.056.413,2.43,2.43,0,0,0-.734.184c-.184.092-.321.184-.367.321a1.269,1.269,0,0,0-.092.643v1.7c0,.092.046.138.092.138h.229c.046,0,.092,0,.092-.046s.046-.092.046-.138a2.086,2.086,0,0,1,.092-.367c.046-.046.046-.092.138-.092a2.366,2.366,0,0,0,.78.6,2.335,2.335,0,0,0,1.01.184,1.806,1.806,0,0,0,1.469-.689,2.778,2.778,0,0,0,.551-1.79v-.23c0-.046-.046-.046-.092-.046h-.275a.16.16,0,0,0-.046.092,1.678,1.678,0,0,1-.689.5,2.4,2.4,0,0,1-.964.184,2.425,2.425,0,0,1-.6-.046,2.133,2.133,0,0,1-.413-.138,1.529,1.529,0,0,1-.275-.138.5.5,0,0,0-.23-.046.314.314,0,0,0-.321.321Zm-5.1,0c0,.138-.046.184-.184.184-.046,0-.092,0-.092-.046v-.872a.738.738,0,0,1,.138-.5.373.373,0,0,1,.367-.184.582.582,0,0,1,.275.046,3.164,3.164,0,0,0,.367.138c.138.046.275.092.459.138a2.234,2.234,0,0,0,.551.046,1.85,1.85,0,0,0,1.01-.275,1.656,1.656,0,0,0,.689-.689,1.673,1.673,0,0,0,.23-.964,1.564,1.564,0,0,0-.321-1.01,1.818,1.818,0,0,0-.872-.643,3.838,3.838,0,0,0-1.331-.23,2.869,2.869,0,0,0-1.148.184,2.548,2.548,0,0,0-.78.5,1.126,1.126,0,0,0-.275.734,1.175,1.175,0,0,0,.367.872,1.293,1.293,0,0,0,.964.321,1.457,1.457,0,0,0,.918-.275.98.98,0,0,0,.367-.78.77.77,0,0,0-.275-.643.948.948,0,0,0-.734-.23h-.046a.169.169,0,0,1-.046-.138c0-.092.092-.138.23-.138a1.143,1.143,0,0,1,.872.321,1.221,1.221,0,0,1-.046,1.7,1.716,1.716,0,0,1-1.056.413,2.431,2.431,0,0,0-.734.184c-.184.092-.321.184-.367.321a1.269,1.269,0,0,0-.092.643v1.7c0,.092.046.138.092.138h.23c.046,0,.092,0,.092-.046s.046-.092.046-.138a2.081,2.081,0,0,1,.092-.367c.046-.046.046-.092.138-.092a2.366,2.366,0,0,0,.78.6,2.335,2.335,0,0,0,1.01.184,1.806,1.806,0,0,0,1.469-.689,2.778,2.778,0,0,0,.551-1.79v-.23c0-.046-.046-.046-.092-.046h-.184a.16.16,0,0,0-.046.092,1.678,1.678,0,0,1-.689.5,2.4,2.4,0,0,1-.964.184,2.425,2.425,0,0,1-.6-.046,2.133,2.133,0,0,1-.413-.138,1.528,1.528,0,0,1-.275-.138.5.5,0,0,0-.23-.046.314.314,0,0,0-.321.321v.918Zm-4.131.6v-4.728c0-.138.046-.23.138-.23s.138.092.138.23v4.728c0,.138-.046.23-.138.23s-.138-.092-.138-.23m2.02-.138a3.332,3.332,0,0,0,.689-2.2,3.547,3.547,0,0,0-.643-2.249,2.66,2.66,0,0,0-3.764,0,3.547,3.547,0,0,0-.643,2.249,3.249,3.249,0,0,0,.689,2.2,2.249,2.249,0,0,0,1.836.826,2.311,2.311,0,0,0,1.836-.826m-8.676-.459c0,.138-.046.184-.184.184-.046,0-.092,0-.092-.046v-.872a.738.738,0,0,1,.138-.5.373.373,0,0,1,.367-.184.582.582,0,0,1,.275.046,3.161,3.161,0,0,0,.367.138c.138.046.275.092.459.138a2.234,2.234,0,0,0,.551.046,1.851,1.851,0,0,0,1.01-.275,1.656,1.656,0,0,0,.689-.689,1.673,1.673,0,0,0,.23-.964,1.565,1.565,0,0,0-.321-1.01,1.818,1.818,0,0,0-.872-.643,3.838,3.838,0,0,0-1.331-.23,2.869,2.869,0,0,0-1.148.184,2.548,2.548,0,0,0-.78.5,1.125,1.125,0,0,0-.275.734,1.175,1.175,0,0,0,.367.872,1.293,1.293,0,0,0,.964.321,1.457,1.457,0,0,0,.918-.275.981.981,0,0,0,.367-.78.77.77,0,0,0-.275-.643.948.948,0,0,0-.734-.23h-.046a.169.169,0,0,1-.046-.138c0-.092.092-.138.23-.138a1.143,1.143,0,0,1,.872.321,1.221,1.221,0,0,1-.046,1.7,1.716,1.716,0,0,1-1.056.413,2.43,2.43,0,0,0-.734.184c-.184.092-.321.184-.367.321a1.269,1.269,0,0,0-.092.643v1.7c0,.092.046.138.092.138h.23c.046,0,.092,0,.092-.046s.046-.092.046-.138a2.084,2.084,0,0,1,.092-.367c.046-.046.046-.092.138-.092a2.366,2.366,0,0,0,.78.6,2.335,2.335,0,0,0,1.01.184,1.806,1.806,0,0,0,1.469-.689,2.778,2.778,0,0,0,.551-1.79v-.23c0-.046-.046-.046-.092-.046h-.184a.16.16,0,0,0-.046.092,1.678,1.678,0,0,1-.689.5,2.4,2.4,0,0,1-.964.184,2.425,2.425,0,0,1-.6-.046,2.134,2.134,0,0,1-.413-.138,1.529,1.529,0,0,1-.275-.138.414.414,0,0,0-.23-.046.314.314,0,0,0-.321.321v.918Z" transform="translate(-59.84 -62.773)" fill="#B34353"/>
    </g>
  </g>
</svg>
