<svg xmlns="http://www.w3.org/2000/svg" width="24" height="24" viewBox="0 0 24 24">
  <path id="Caminho_1404" data-name="Caminho 1404" d="M1925.883,2674a2.59,2.59,0,0,0-.74-1.9l-4.239-4.375a9.771,9.771,0,0,0-1.289-12.013,10.486,10.486,0,0,0-14.508-.427,9.79,9.79,0,0,0-.692,13.83c.083.091.167.182.253.271a10.274,10.274,0,0,0,4.5,2.708,10.577,10.577,0,0,0,7.761-.72l4.233,4.371a2.714,2.714,0,0,0,1.2.72,2.791,2.791,0,0,0,2.664-.607A2.609,2.609,0,0,0,1925.883,2674Zm-17.676-7.752a5.409,5.409,0,0,1,.089-7.5c.047-.047.095-.092.143-.137a5.4,5.4,0,0,1,7.548,7.722c-.047.047-.094.092-.143.138a5.408,5.408,0,0,1-7.637-.226Z" transform="translate(-1901.884 -2652.573)" fill="#B34353"/>
</svg>
