<svg xmlns="http://www.w3.org/2000/svg" width="30" height="24" viewBox="0 0 30 24">
  <g id="Grupo_7678" data-name="Grupo 7678" transform="translate(-255 -96)">
    <g id="Grupo_5589" data-name="Grupo 5589" transform="translate(255 96)">
      <path id="Caminho_1355" data-name="Caminho 1355" d="M3766.7,2714.108h-27.081a1.515,1.515,0,0,1-1.46-1.565v-1.565a1.516,1.516,0,0,1,1.46-1.565H3766.7a1.515,1.515,0,0,1,1.459,1.565v1.565A1.515,1.515,0,0,1,3766.7,2714.108Z" transform="translate(-3738.164 -2709.412)" fill="#B34353"/>
      <path id="Caminho_1356" data-name="Caminho 1356" d="M3762.641,2723.358h-22.912a1.565,1.565,0,0,1-1.565-1.565v-1.565a1.566,1.566,0,0,1,1.565-1.565h22.912a1.565,1.565,0,0,1,1.565,1.565v1.565A1.565,1.565,0,0,1,3762.641,2723.358Z" transform="translate(-3738.164 -2709.01)" fill="#B34353"/>
      <path id="Caminho_1357" data-name="Caminho 1357" d="M3764.671,2732.608h-25.054a1.512,1.512,0,0,1-1.452-1.565v-1.565a1.512,1.512,0,0,1,1.452-1.565h25.054a1.513,1.513,0,0,1,1.453,1.565v1.565A1.512,1.512,0,0,1,3764.671,2732.608Z" transform="translate(-3738.164 -2708.607)" fill="#B34353"/>
    </g>
  </g>
</svg>
